<?xml version="1.0" encoding="utf-8"?><svg xmlns="http://www.w3.org/2000/svg" xmlns:xlink="http://www.w3.org/1999/xlink"><symbol viewBox="0 0 14 10" id="donate"><title>Donate</title><path d="M11.91 0H1.726C1.02 0 .46.556.46 1.25l-.005 7.5c0 .694.566 1.25 1.272 1.25H11.91c.705 0 1.272-.556 1.272-1.25v-7.5c0-.694-.567-1.25-1.273-1.25zm0 8.75H1.726V5H11.91v3.75zm0-6.25H1.726V1.25H11.91V2.5z" fill="#FFF" fill-rule="evenodd"/></symbol><symbol viewBox="0 0 10 11" id="download"><title>Download</title><path d="M9.083 4.25H6.75V.75h-3.5v3.5H.917L5 8.333 9.083 4.25zM.917 9.5v1.167h8.166V9.5H.917z" fill="#9B9B9B" fill-rule="evenodd"/></symbol><symbol viewBox="0 0 19 10" id="link"><title>Group</title><g fill="none" fill-rule="evenodd"><path d="M4-1h12v12H4"/><path fill="#9B9B9B" d="M9.5 4.5H2.415l1.79-1.795L3.5 2l-3 3 3 3 .705-.705L2.415 5.5H9.5"/><path d="M17.112 0h-10C6.5 0 6 .5 6 1.11v2.22h1.11V1.1h10.002v7.795h-10V6.662H6V8.89c0 .61.5 1.1 1.11 1.1h10.002c.612 0 1.112-.49 1.112-1.1V1.11c0-.616-.5-1.11-1.112-1.11z" fill="#9B9B9B"/></g></symbol><symbol viewBox="0 0 13 10" id="login"><title>Group</title><path d="M11.112 0h-10C.5 0 0 .5 0 1.11v2.22h1.11V1.1h10.002v7.795h-10V6.662H0V8.89c0 .61.5 1.1 1.11 1.1h10.002c.612 0 1.112-.49 1.112-1.1V1.11c0-.616-.5-1.11-1.112-1.11zM5.556 7.217L7.78 4.995 5.555 2.773V4.44H0v1.11h5.556v1.667z" fill="#9B9B9B" fill-rule="evenodd"/></symbol></svg>