<?xml version="1.0" encoding="utf-8"?><!DOCTYPE svg PUBLIC "-//W3C//DTD SVG 1.1//EN" "http://www.w3.org/Graphics/SVG/1.1/DTD/svg11.dtd"><svg xmlns="http://www.w3.org/2000/svg" xmlns:xlink="http://www.w3.org/1999/xlink"><symbol viewBox="0 0 27 32" id="facebook"><path d="M25.911 2.286q.625 0 1.071.446t.446 1.071v24.393q0 .625-.446 1.071t-1.071.446h-6.982V19.088h3.554l.536-4.143H18.93v-2.643q0-1 .42-1.5t1.634-.5l2.179-.018V6.588q-1.125-.161-3.179-.161-2.429 0-3.884 1.429t-1.455 4.036v3.054h-3.571v4.143h3.571v10.625H1.52q-.625 0-1.071-.446t-.446-1.071V3.804q0-.625.446-1.071t1.071-.446h24.393z"/></symbol><symbol viewBox="0 0 41 32" id="google-plus"><path d="M25.661 16.304q0 3.714-1.554 6.616t-4.429 4.536-6.589 1.634q-2.661 0-5.089-1.036t-4.179-2.786-2.786-4.179T-.001 16t1.036-5.089 2.786-4.179T8 3.946t5.089-1.036q5.107 0 8.768 3.429L18.303 9.75q-2.089-2.018-5.214-2.018-2.196 0-4.063 1.107t-2.955 3.009T4.982 16t1.089 4.152 2.955 3.009 4.063 1.107q1.482 0 2.723-.411t2.045-1.027 1.402-1.402.875-1.482.384-1.321h-7.429v-4.5h12.357q.214 1.125.214 2.179zm15.482-2.179v3.75h-3.732v3.732h-3.75v-3.732h-3.732v-3.75h3.732v-3.732h3.75v3.732h3.732z"/></symbol><symbol viewBox="0 0 61 30" id="logo"><title>MOUNTAIN SYMBOL Copy</title><path d="M32.68 8.045L44.392 30h15.951L37.88 8.045h-5.2zM16.01 0L0 30h42.289L26.282 0H16.01z" fill="#000" fill-rule="evenodd"/></symbol><symbol viewBox="0 0 30 32" id="twitter"><path d="M28.929 7.286q-1.196 1.75-2.893 2.982.018.25.018.75 0 2.321-.679 4.634t-2.063 4.437-3.295 3.759-4.607 2.607-5.768.973q-4.839 0-8.857-2.589.625.071 1.393.071 4.018 0 7.161-2.464-1.875-.036-3.357-1.152t-2.036-2.848q.589.089 1.089.089.768 0 1.518-.196-2-.411-3.313-1.991t-1.313-3.67v-.071q1.214.679 2.607.732-1.179-.786-1.875-2.054t-.696-2.75q0-1.571.786-2.911Q4.91 8.285 8.008 9.883t6.634 1.777q-.143-.679-.143-1.321 0-2.393 1.688-4.08t4.08-1.688q2.5 0 4.214 1.821 1.946-.375 3.661-1.393-.661 2.054-2.536 3.179 1.661-.179 3.321-.893z"/></symbol></svg>