<svg width="18" height="17" viewBox="0 0 18 17" xmlns="http://www.w3.org/2000/svg">
  <title>
    money
  </title>
  <g fill="#ABABAB" fill-rule="evenodd">
    <path d="M17.59 14.516H2.865c-.246 0-.41.166-.41.414 0 .25.164.414.41.414h14.318v.828H.818v-.828h.41c.245 0 .408-.165.408-.414v-1.242H16.774c.244 0 .408-.165.408-.414 0-.248-.164-.414-.41-.414h-.408V6.65h.41c.244 0 .408-.165.408-.413V3.754c0-.165-.123-.33-.287-.372L13.95 2.264 9.087.436 4.05 2.263 1.105 3.38c-.164.042-.287.208-.287.373v.828c0 .25.164.415.41.415h13.908c.246 0 .41-.165.41-.414 0-.247-.164-.413-.41-.413h-13.5v-.124L9 1.31l7.364 2.733V5.824H1.227c-.245 0-.41.166-.41.414 0 .248.165.414.41.414h.41v6.21h-.41c-.245 0-.41.166-.41.414v1.242H.41c-.246 0-.41.166-.41.414v1.656c0 .248.164.414.41.414h17.18c.246 0 .41-.166.41-.414V14.93c0-.248-.164-.414-.41-.414zM14.728 6.65h.818v6.21h-.818V6.65zm-2.454 0h1.636v6.21h-1.637V6.65zm-1.637 0h.82v6.21h-.82V6.65zm-2.454 0h1.636v6.21H8.182V6.65zm-1.637 0h.82v6.21h-.82V6.65zm-2.454 0h1.637v6.21H4.09V6.65zm-1.635 0h.818v6.21h-.818V6.65z"/>
    <ellipse cx="9" cy="2.925" rx=".818" ry=".828"/>
  </g>
</svg>
