<svg height="100" viewBox="0 0 160 100" width="160" xmlns="http://www.w3.org/2000/svg">
  <title/>
  <g fill="none" fill-rule="evenodd">
    <path d="M148 0H8C4 0 0 4 0 8v80c0 8 4 12 12 12h136c8 0 12-4 12-12V12c0-8-4-12-12-12zm0 0" fill="#265697"/>
    <path d="M149.545 50.5c.007 23.238-18.625 42.08-41.615 42.085C84.94 92.59 66.3 73.76 66.293 50.52v-.02C66.287 27.263 84.92 8.42 107.908 8.414c22.99-.006 41.63 18.827 41.637 42.065v.02s0-.008 0 0zm0 0" fill="#DFAC16"/>
    <path d="M51.813 8.425c-22.854.147-41.36 18.94-41.36 42.075 0 23.225 18.65 42.075 41.628 42.075 10.785 0 20.615-4.155 28.012-10.963l-.003-.002h.008c1.514-1.395 2.927-2.9 4.226-4.505h-8.53c-1.137-1.39-2.172-2.84-3.102-4.335H87.4c.895-1.446 1.705-2.95 2.423-4.505h-19.56c-.666-1.445-1.245-2.922-1.74-4.42h23.042c1.39-4.194 2.142-8.68 2.142-13.345 0-3.093-.33-6.108-.96-9.01H67.303c.315-1.494.713-2.97 1.187-4.42h23.05c-.516-1.544-1.115-3.048-1.795-4.505H70.26c.704-1.518 1.5-2.994 2.39-4.42h14.697c-.978-1.575-2.06-3.08-3.23-4.505H75.92c1.267-1.508 2.662-2.927 4.176-4.25C72.7 12.58 62.868 8.425 52.08 8.425h-.267s.09 0 0 0zm0 0" fill="#BF3126"/>
    <path d="M67.05 61.212l.554-3.808c-.303 0-.748.132-1.142.132-1.543 0-1.713-.83-1.614-1.443l1.246-7.77h2.345l.565-4.21h-2.21l.45-2.62H62.81c-.098.098-2.616 14.73-2.616 16.513 0 2.637 1.465 3.812 3.53 3.793 1.62-.014 2.88-.467 3.324-.588 0 0-.445.12 0 0zm0 0M68.454 53.952c0 6.33 4.134 7.835 7.656 7.835 3.25 0 4.682-.734 4.682-.734l.78-4.32s-2.473 1.1-4.706 1.1c-4.76 0-3.926-3.586-3.926-3.586h9.007s.582-2.903.582-4.086c0-2.95-1.455-6.547-6.32-6.547-4.457 0-7.756 4.854-7.756 10.34 0 0 0-5.486 0 0zm7.772-6.327c2.5 0 2.04 2.84 2.04 3.07h-4.92c0-.293.464-3.07 2.88-3.07 0 0-2.416 0 0 0zm0 0M104.292 61.21l.793-4.883s-2.175 1.102-3.667 1.102c-3.144 0-4.405-2.428-4.405-5.035 0-5.288 2.705-8.198 5.716-8.198 2.258 0 4.07 1.282 4.07 1.282l.724-4.746s-2.688-1.1-4.992-1.1c-5.117 0-10.094 4.487-10.094 12.913 0 5.587 2.688 9.277 7.977 9.277 1.495 0 3.877-.614 3.877-.614zm0 0M42.673 43.682c-3.04 0-5.37.988-5.37.988l-.642 3.86s1.924-.79 4.83-.79c1.65 0 2.858.187 2.858 1.542 0 .824-.148 1.128-.148 1.128s-1.3-.11-1.904-.11c-3.833 0-7.86 1.653-7.86 6.638 0 3.928 2.642 4.83 4.28 4.83 3.126 0 4.474-2.05 4.546-2.058l-.146 1.712h3.902l1.74-12.337c0-5.234-4.516-5.403-6.085-5.403zm.95 10.046c.084.753-.468 4.286-3.136 4.286-1.377 0-1.735-1.063-1.735-1.692 0-1.226.66-2.698 3.907-2.698.754 0 .835.083.963.104 0 0-.128-.02 0 0zm0 0M52.907 61.677c1 0 6.706.257 6.706-5.696 0-5.564-5.283-4.464-5.283-6.7 0-1.113.86-1.463 2.435-1.463.625 0 3.028.2 3.028.2l.56-3.955s-1.556-.352-4.09-.352c-3.278 0-6.606 1.323-6.606 5.85 0 5.128 5.55 4.614 5.55 6.774 0 1.442-1.55 1.56-2.746 1.56-2.067 0-3.93-.717-3.935-.683l-.59 3.916c.106.034 1.254.55 4.972.55 0 0-3.718 0 0 0zm0 0M141.004 40.133l-.956 5.996s-1.668-2.33-4.28-2.33c-4.06 0-7.445 4.95-7.445 10.635 0 3.67 1.805 7.267 5.496 7.267 2.654 0 4.125-1.87 4.125-1.87l-.195 1.597h4.31l3.387-21.304-4.443.007zm-2.058 11.69c0 2.367-1.16 5.528-3.562 5.528-1.595 0-2.342-1.353-2.342-3.477 0-3.473 1.543-5.764 3.49-5.764 1.596-.002 2.414 1.106 2.414 3.714 0 0 0-2.608 0 0zm0 0M18.675 61.448l2.698-16.084.396 16.084h3.053l5.696-16.084-2.524 16.084h4.537l3.495-21.332H29.01l-4.368 13.088-.228-13.088h-6.467l-3.545 21.332h4.273zm0 0M86.96 61.477c1.292-7.415 1.53-13.436 4.61-12.334.538-2.87 1.058-3.98 1.646-5.195 0 0-.275-.06-.854-.06-1.985 0-3.456 2.742-3.456 2.742l.396-2.517h-4.127L82.41 61.477h4.55zm0 0M114.52 43.682c-3.04 0-5.37.988-5.37.988l-.643 3.86s1.923-.79 4.83-.79c1.65 0 2.856.187 2.856 1.542 0 .824-.147 1.128-.147 1.128s-1.3-.11-1.905-.11c-3.83 0-7.858 1.653-7.858 6.638 0 3.928 2.64 4.83 4.278 4.83 3.127 0 4.475-2.05 4.547-2.058l-.145 1.712h3.902l1.74-12.337c0-5.234-4.516-5.403-6.085-5.403zm.95 10.046c.084.753-.468 4.286-3.138 4.286-1.376 0-1.733-1.063-1.733-1.692 0-1.226.658-2.698 3.905-2.698.755 0 .836.083.964.104 0 0-.13-.02 0 0zm0 0M124.172 61.477c1.29-7.415 1.53-13.436 4.607-12.334.54-2.87 1.06-3.98 1.647-5.195 0 0-.276-.06-.854-.06-1.985 0-3.456 2.742-3.456 2.742l.395-2.517h-4.126l-2.765 17.364h4.552zm0 0" fill="#FFF"/>
  </g>
</svg>
