<svg width="26" height="15" viewBox="0 0 26 15" xmlns="http://www.w3.org/2000/svg">
  <title>
    Group
  </title>
  <g fill="#ABABAB" fill-rule="evenodd">
    <path d="M0 7.567v7.408h26V.16H0v7.407zm24.984 0v6.37H1.016V1.196h23.968v6.37z"/>
    <path d="M2.1 3.31v.518H8.463V2.79H2.1M16.115 4.382v1.592H23.9V2.79h-7.785V4.38zm6.77 0v.554l-2.857-.014-2.864-.02-.02-.444c-.014-.242-.007-.484.013-.533.027-.083.548-.097 2.884-.097h2.845v.554zM2.1 5.455v.52H9.614v-1.04H2.1M2.1 8.64v.52h21.8V8.12H2.1M17.015 11.846l-.36.02v1.032H23.9v-1.04l-.385-.005c-1.43-.02-6.21-.02-6.5-.007z"/>
  </g>
</svg>
