<svg width="13" height="15" viewBox="0 0 13 15" xmlns="http://www.w3.org/2000/svg">
  <title>
    Group 32
  </title>
  <g fill="none" fill-rule="evenodd">
    <path d="M3.555 14.107L3.81 12.5l-.57-.014H.52L2.41.626c.006-.037.025-.07.053-.094.028-.023.064-.037.1-.037h4.59c1.524 0 2.575.314 3.124.933.257.29.42.594.5.927.084.35.085.77.004 1.28l-.005.037V4l.258.143c.216.114.388.244.52.393.22.25.363.564.423.938.062.385.042.842-.06 1.36-.117.597-.307 1.116-.564 1.54-.235.392-.536.717-.892.97-.34.238-.746.42-1.203.535-.443.113-.95.17-1.503.17h-.357c-.255 0-.504.092-.698.255-.196.166-.326.394-.365.643l-.027.144-.452 2.833-.02.104c-.006.032-.015.05-.03.06-.01.01-.03.017-.046.017H3.555z" fill="#ABABAB"/>
    <path d="M11.276 3.71c-.014.086-.03.175-.047.266C10.623 7.05 8.553 8.11 5.91 8.11H4.562c-.324 0-.596.233-.647.548l-.69 4.324-.194 1.226c-.033.207.13.394.34.394H5.76c.283 0 .523-.203.567-.48l.024-.12.45-2.82.03-.156c.043-.277.284-.48.567-.48h.357c2.314 0 4.125-.93 4.654-3.617.22-1.125.107-2.062-.478-2.722-.177-.2-.397-.364-.654-.498z" fill="#C8C8C8"/>
    <path d="M10.643 3.46c-.092-.026-.188-.05-.286-.072-.098-.022-.2-.04-.302-.057-.364-.057-.76-.085-1.187-.085H5.27c-.088 0-.172.02-.247.056-.166.08-.29.235-.32.425L3.94 8.52l-.022.138c.05-.315.323-.547.647-.547H5.91c2.644 0 4.714-1.06 5.32-4.134.017-.09.032-.18.046-.266-.153-.08-.32-.15-.497-.208l-.137-.042z" fill="#969696"/>
    <path d="M4.704 3.725c.03-.19.153-.345.32-.424.074-.034.158-.054.247-.054H8.87c.426 0 .823.027 1.187.085.103.018.204.037.302.058.098.022.194.046.286.073l.136.042c.178.06.344.128.497.208.18-1.136-.002-1.91-.623-2.61C9.97.33 8.734 0 7.154 0h-4.59c-.322 0-.598.232-.648.548L.006 12.53c-.04.238.146.452.388.452h2.833l.71-4.463.767-4.795z" fill="#ABABAB"/>
  </g>
</svg>
