<svg width="16" height="15" viewBox="0 0 16 15" xmlns="http://www.w3.org/2000/svg">
  <title>
    Fax_1_
  </title>
  <path d="M.653 2.41h1.96V.653c0-.36.292-.65.652-.65h9.47c.36 0 .653.29.653.65V2.41h1.96c.36 0 .652.29.652.65v6.377c0 .36-.292.65-.653.65h-1.96v3.43c0 .217-.043.38-.212.532-.078.07-.162.117-.264.145-.094.027-.187.025-.283.025H3.373c-.096 0-.19.002-.284-.025-.104-.028-.187-.075-.266-.146-.168-.155-.212-.317-.212-.534V10.09H.652c-.36 0-.652-.29-.652-.65V3.06c0-.36.292-.65.653-.65zm13.714 2.294c.316 0 .572-.255.572-.57 0-.314-.257-.57-.573-.57-.315 0-.57.256-.57.57 0 .315.255.57.57.57zM3.265 13.57h9.47V8.43h-9.47v5.14zm0-11.16h9.47V1.304c0-.36-.293-.65-.653-.65H3.918c-.36 0-.653.29-.653.65V2.41z" fill="#FFF" fill-rule="evenodd"/>
</svg>
