<svg height="100" viewBox="0 0 160 100" width="160" xmlns="http://www.w3.org/2000/svg">
  <title/>
  <g fill="none" fill-rule="evenodd">
    <path fill="#F6F6F6" d="M0 9h160v80H0z"/>
    <path d="M148 0H8C4 0 0 4 0 8v12h160v-8c0-8-4-12-12-12zm0 0" fill="#265697"/>
    <path d="M0 80v8c0 8 4 12 12 12h136c8 0 12-4 12-12v-8H0zm0 0" fill="#D97B16"/>
    <path d="M111.615 29.782c-2.243-.86-5.757-1.782-10.145-1.782-11.184 0-19.062 5.755-19.13 14.003-.062 6.097 5.625 9.498 9.92 11.528 4.404 2.08 5.885 3.407 5.864 5.264-.028 2.844-3.518 4.144-6.77 4.144-4.53 0-6.938-.644-10.655-2.228l-1.46-.674-1.588 9.498c2.643 1.185 7.532 2.21 12.608 2.264 11.897 0 19.62-5.69 19.71-14.496.042-4.827-2.974-8.5-9.504-11.53-3.956-1.962-6.38-3.272-6.353-5.26 0-1.763 2.05-3.65 6.48-3.65 3.703-.057 6.384.767 8.473 1.627l1.014.49 1.535-9.198M140.638 28.778h-8.746c-2.71 0-4.736.755-5.926 3.52l-16.81 38.884h11.885s1.945-5.228 2.384-6.376c1.3 0 12.845.018 14.496.018.338 1.485 1.377 6.358 1.377 6.358H149.8l-9.162-42.404zm-13.956 27.35c.936-2.446 4.51-11.863 4.51-11.863-.068.113.928-2.456 1.5-4.05l.765 3.66s2.167 10.127 2.62 12.25l-9.395.002zm0 0M59.25 71.17l7.076-42.433h11.32L70.563 71.17H59.25zm0 0M49.757 28.768l-11.08 28.935-1.182-5.88c-2.063-6.778-8.49-14.122-15.676-17.8l10.132 37.11 11.975-.015 17.82-42.35h-11.99" fill="#265697"/>
    <path d="M28.396 28.742H10.144l-.144.883c14.2 3.512 23.595 12 27.495 22.198l-3.97-19.5c-.684-2.685-2.67-3.487-5.13-3.58" fill="#D97B16"/>
  </g>
</svg>
